<svg xmlns="http://www.w3.org/2000/svg" viewBox="0 0 150.03 129.59"><defs><style>.cls-1{fill:#4f3c0e;}.cls-2{fill:#e7b35b;}.cls-3{fill:#774b10;}.cls-4{fill:#f6d44d;}.cls-5{fill:#39b54a;}</style></defs><title>burger</title><g id="Layer_2" data-name="Layer 2"><g id="Layer_1-2" data-name="Layer 1"><path class="cls-1" d="M146.51,64.32l-.2-.28c0-.32-.05-1.32-.19-2.83a16.11,16.11,0,0,0-.24-2.61,10.71,10.71,0,0,0-.76-4.58c-1.49-8.09-4.84-19.69-12.32-29.82C122.67,9.49,100.43,0,76.07,0S29.44,9.51,19.32,24.23c-8.86,12-11.91,26.06-13,33.89A28.58,28.58,0,0,0,3.5,62.23c-.27.45-.53.9-.81,1.31-3.65,5.31-2.8,10-2,12.35a13.13,13.13,0,0,0,1.33,2.68,16.27,16.27,0,0,0-.86,6,8.74,8.74,0,0,0,1.7,4.76A9.17,9.17,0,0,0,5.55,95.8,8.29,8.29,0,0,0,6,97.08a64.13,64.13,0,0,0,.59,15.31c1.07,10.52,16.66,13,25.18,14.31,11.88,1.86,27.59,2.89,44.22,2.89,16.28,0,31.74-1,43.53-2.79,13.6-2.07,23.17-5,25.46-12.44a8.46,8.46,0,0,0,.33-1.34,70.09,70.09,0,0,0,1.09-13.9,10,10,0,0,0,1.56-5.5h0a9.14,9.14,0,0,0-.14-1.66,9.11,9.11,0,0,0,.61-3.3,9.28,9.28,0,0,0-.28-2.27,8.83,8.83,0,0,0,.71-1.64,15.93,15.93,0,0,0,.31-8,10.81,10.81,0,0,0,.87-3.26C150.33,69.56,148.3,66.77,146.51,64.32Z"/><path class="cls-2" d="M19.06,101.94a43.72,43.72,0,0,0,.53,7.92c3.69,2.4,22.73,6.44,56.36,6.44s52.72-4,56.37-6.45a67,67,0,0,0,.75-8c-1.24.45-2.63.87-4.18,1.27a13.49,13.49,0,0,1-6,2.9c-2.06.35-4.24.58-6.54.82l-2.91.31a22.57,22.57,0,0,1-5.71-.29c-.65-.1-1.28-.19-1.89-.25l-3.76.31-1.47.4a25,25,0,0,1-5.88,1.16c-.31,0-.61,0-.92,0a36.12,36.12,0,0,1-4.5-.36,28.1,28.1,0,0,0-3.93-.3,25.52,25.52,0,0,1-2.78-.08q-3.28.06-6.65.06-3.72,0-7.37-.07c-.57,0-1.14,0-1.71,0-1,0-2.06-.07-3.06-.14-8.08-.25-15.72-.76-22.54-1.49a13,13,0,0,1-2.06-.06,30.73,30.73,0,0,1-3.69-.65c-1.06-.14-2.1-.29-3.11-.45A76,76,0,0,1,19.06,101.94Z"/><path class="cls-3" d="M29.51,91.77A90.35,90.35,0,0,1,20,89.7c-1.05-.31-2.09-.63-3.11-1-1.15-.07-2.32-.13-3.46-.16a2.85,2.85,0,0,0-.29.88,14.62,14.62,0,0,0,.21,2.36c0,.51,1.88.71,2.11,1.75,0,.12-.7,0-.65.13.6,1.5,2.86,2.14,7.33,3.38,2.47.69,5.18,2.2,8.61,2.77,2.74.46,5.66,1.51,8.92,1.88,2.84.32,6-1.14,9.2-.9,2.9.23,5.83,1.87,9,2,2.94.14,6,.47,9.09.54s6-.51,9.11-.51,6.19.65,9.19.58c3.15-.07,6.27.78,9.25.64,3.17-.15,6.17-1.69,9.1-1.92,3.22-.25,6.44.94,9.31.61,3.3-.38,6.46-.63,9.21-1.1,3.49-.59,5.84-4.23,8.3-4.94l.95-.26a4.26,4.26,0,0,1-1.86-.58c-3.64-2.16-17.19-1.51-23-1.23-2.16.1-4,.19-5.34.19-2,0-6.66.11-12,.23-9.69.22-21.76.5-26,.32-3.94-.16-13.4,2.78-18.43,4.69a4.57,4.57,0,0,1-1.57.28,4.46,4.46,0,0,1-3.52-1.73,42,42,0,0,0-6.39-6.3C32,92.16,30.73,92,29.51,91.77Z"/><path class="cls-4" d="M20.54,84.55l-.74-.66-.18-.16a46.73,46.73,0,0,1-8.83-3.29A8.32,8.32,0,0,0,10,84.06S15,84.06,20.54,84.55Z"/><path class="cls-4" d="M43.22,95.93s4-1.51,8.66-2.87l-.62-.27a9.51,9.51,0,0,1-5.15-1.55,3,3,0,0,1-.31,0,8.58,8.58,0,0,1-5.85-2l-.7.11c-.68.1-1.42.21-2.21.29A45.77,45.77,0,0,1,43.22,95.93Z"/><path class="cls-4" d="M101.21,90.41c5.77,0,24.52-1.93,30.58,1.66,0,0,1.54-7.46,8.56-9.94a7.39,7.39,0,0,0,.26-1.72,9.14,9.14,0,0,1-2.29,1.4c-2.64,1-5.41.24-7.64-.36l-1-.26a6.42,6.42,0,0,1-3.28,3.63,8.35,8.35,0,0,1-2.43.79,1.63,1.63,0,0,1-.11.17c-2.12,3.1-6.71,3.64-8.06,3.74a8.18,8.18,0,0,1-4.66-1.35l-.7.31A13.89,13.89,0,0,1,101,89.92a18.71,18.71,0,0,1-4.55-1.56,20.05,20.05,0,0,1-6.08-1.66c-.17.18-.35.38-.55.58-5.3,5.34-10,2.7-12.74,1.12-.62-.35-1.25-.71-1.92-1l-.08,0c-.13.14-.29.28-.45.42A8.51,8.51,0,0,1,72,90l-.24.16a4.46,4.46,0,0,1-1.44.82C80.46,90.9,96.76,90.41,101.21,90.41Z"/><path class="cls-5" d="M120.13,75.19c-11.81,1.75-27.45,2.71-44.06,2.71s-32.26-1-44.06-2.71c-12.79-1.9-19.2-4.27-21.12-8-.29.49-.59,1-.9,1.42C5.43,75.21,15.7,78,21.82,79.75A40,40,0,0,0,25.64,83c1.24.83,3.74,3.25,5.14,3.31s1.91.46,2.27-.32c.11-.23.22-.47.32-.72,2.86.45,5.38-.43,7.87-.55,1,.63,2.42,2.31,4.26,2.18A8.07,8.07,0,0,0,47,86.57c1.48,1,3.23,2.13,4.6,1.69a1.89,1.89,0,0,0,.41-.18c1.13.81,2.45,1.48,3.28,1.13,1.44-.61,1.79-2.9,3.44-2.68s9.57.78,10.19.23,2-1.06,2.2-1.94c1.94-1.29,2-3.33,5.9-1.45s6,4.46,9.6.79c1.67-1.69,1.21-2.51,4.08-2.49h.11a1.25,1.25,0,0,0,.63.7,19,19,0,0,0,5.26,1.57l.77,0a17.13,17.13,0,0,0,4.29,1.6c4.08.76,5.48-.68,9-2,.22-.09.45-.17.68-.24,1.76.86,3,1.89,4.06,1.82s5.6-.81,4.88-3.11a.19.19,0,0,0,0-.07l.28-.07c.56-.17,3.35-.76,3.6-.9,2.39-1.33.4-1.62,1.79-3.5a2.37,2.37,0,0,1,1.8-.94h.34c2.59,0,6.35,2,8.59,1.17,1.33-.49,4.27-3.61,4.39-5,.06-.61-.93-2-1.87-3.25C136.17,71.94,130.09,73.71,120.13,75.19Z"/><path class="cls-2" d="M14.67,64.36c0,5,27.49,9.11,61.4,9.11s61.39-4.08,61.39-9.11h0s-.49-19.7-11.87-35h0c-8.19-12-27.28-20.5-49.52-20.5S34.73,17.31,26.54,29.37C15.16,44.67,14.67,64.36,14.67,64.36ZM69,49.36c1.39,3.92,4.13,6.46,7,6.46s5.6-2.54,7-6.46a3,3,0,0,1,5.66,2C86.37,57.81,81.53,61.82,76,61.82s-10.36-4-12.65-10.46a3,3,0,1,1,5.66-2ZM60.36,42A4.61,4.61,0,1,1,65,37.41,4.61,4.61,0,0,1,60.36,42Zm31.3,0a4.61,4.61,0,1,1,4.6-4.61A4.61,4.61,0,0,1,91.66,42Z"/></g></g></svg>